<svg id="kity_svg_6" xmlns="http://www.w3.org/2000/svg" xmlns:xlink="http://www.w3.org/1999/xlink" version="1.1" width="767" height="1097" style="font-family: Arial, &quot;Microsoft Yahei&quot;,  &quot;Heiti SC&quot;; background: #fbfbfb" viewBox="519 322 767 1097"><defs id="kity_defs_7"><linearGradient id="kity_linearGradient_17" x1="0" y1="0" x2="0" y2="1"><stop id="kity_stop_18" offset="0" stop-color="rgb(255, 255, 255)"></stop><stop id="kity_stop_19" offset="1" stop-color="rgb(204, 204, 204)"></stop></linearGradient><marker id="kity_marker_2" orient="auto" refX="6" refY="0" viewBox="-7 -7 14 14" markerWidth="7" markerHeight="7" markerUnits="userSpaceOnUse"><path id="kity_path_3" fill="rgb(115, 161, 191)" stroke="none" d="M6,0A6,6,0,1,1,-6,0A6,6,0,1,1,6,0"></path></marker></defs><g id="kity_g_8" transform="translate(0.5, 0.5)"><g id="minder1" text-rendering="optimize-speed" transform="translate( 828 362 ) matrix( 1 0 0 1 0 0 )"><g id="minder_connect_group1"><path id="kity_path_31" fill="none" stroke="rgb(115, 161, 191)" stroke-width="1" d="M48,20v30h-289V70" transform="translate( 0 0 )"></path><path id="kity_path_39" fill="none" stroke="rgb(115, 161, 191)" stroke-width="1" d="M48,20v30h-89V70" transform="translate( 0 0 )"></path><path id="kity_path_41" fill="none" stroke="rgb(115, 161, 191)" stroke-width="1" d="M-69 96V142L-49 142" transform="translate( 0 0 )"></path><path id="kity_path_43" fill="none" stroke="rgb(115, 161, 191)" stroke-width="1" d="M-69 96V402L-49 402" transform="translate( 0 0 )"></path><path id="kity_path_45" fill="none" stroke="rgb(115, 161, 191)" stroke-width="1" d="M-69 96V506L-49 506" transform="translate( 0 0 )"></path><path id="kity_path_47" fill="none" stroke="rgb(115, 161, 191)" stroke-width="1" d="M-69 96V610L-49 610" transform="translate( 0 0 )"></path><path id="kity_path_51" fill="none" stroke="rgb(115, 161, 191)" stroke-width="1" d="M310 96V298L330 298" transform="translate( 0 0 )"></path><path id="kity_path_57" fill="none" stroke="rgb(115, 161, 191)" stroke-width="1" d="M310 96V454L330 454" transform="translate( 0 0 )"></path><path id="kity_path_65" fill="none" stroke="rgb(115, 161, 191)" stroke-width="1" d="M310 96V662L330 662" transform="translate( 0 0 )"></path><path id="kity_path_69" fill="none" stroke="rgb(115, 161, 191)" stroke-width="1" d="M310 96V766L330 766" transform="translate( 0 0 )"></path><path id="kity_path_79" fill="none" stroke="rgb(115, 161, 191)" stroke-width="1" d="M310 96V1026L330 1026" transform="translate( 0 0 )"></path><path id="kity_path_351" fill="none" stroke="rgb(115, 161, 191)" stroke-width="1" d="M48,20v30h99V70" transform="translate( 0 0 )"></path><path id="kity_path_367" fill="none" stroke="rgb(115, 161, 191)" stroke-width="1" d="M-269 96V142L-249 142" transform="translate( 0 0 )"></path><path id="kity_path_375" fill="none" stroke="rgb(115, 161, 191)" stroke-width="1" d="M-269 96V246L-249 246" transform="translate( 0 0 )"></path><path id="kity_path_383" fill="none" stroke="rgb(115, 161, 191)" stroke-width="1" d="M-269 96V350L-249 350" transform="translate( 0 0 )"></path><path id="kity_path_391" fill="none" stroke="rgb(115, 161, 191)" stroke-width="1" d="M-69 96V714L-49 714" transform="translate( 0 0 )"></path><path id="kity_path_399" fill="none" stroke="rgb(115, 161, 191)" stroke-width="1" d="M119 96V142L139 142" transform="translate( 0 0 )"></path><path id="kity_path_407" fill="none" stroke="rgb(115, 161, 191)" stroke-width="1" d="M119 96V298L139 298" transform="translate( 0 0 )"></path><path id="kity_path_415" fill="none" stroke="rgb(115, 161, 191)" stroke-width="1" d="M119 96V454L139 454" transform="translate( 0 0 )"></path><path id="kity_path_423" fill="none" stroke="rgb(115, 161, 191)" stroke-width="1" d="M159 465V506L179 506" transform="translate( 0 0 )"></path><path id="kity_path_431" fill="none" stroke="rgb(115, 161, 191)" stroke-width="1" d="M159 465V558L179 558" transform="translate( 0 0 )"></path><path id="kity_path_665" fill="none" stroke="rgb(115, 161, 191)" stroke-width="1" d="M48,20v30h290V70" transform="translate( 0 0 )"></path><path id="kity_path_673" fill="none" stroke="rgb(115, 161, 191)" stroke-width="1" d="M310 96V142L330 142" transform="translate( 0 0 )"></path><path id="kity_path_681" fill="none" stroke="rgb(115, 161, 191)" stroke-width="1" d="M310 96V194L330 194" transform="translate( 0 0 )"></path><path id="kity_path_689" fill="none" stroke="rgb(115, 161, 191)" stroke-width="1" d="M350 205V246L370 246" transform="translate( 0 0 )"></path><path id="kity_path_696" fill="none" stroke="rgb(115, 161, 191)" stroke-width="1" d="M350 309V350L370 350" transform="translate( 0 0 )"></path><path id="kity_path_697" fill="none" stroke="rgb(115, 161, 191)" stroke-width="1" d="M350 309V402L370 402" transform="translate( 0 0 )"></path><path id="kity_path_698" fill="none" stroke="rgb(115, 161, 191)" stroke-width="1" d="M350 465V506L370 506" transform="translate( 0 0 )"></path><path id="kity_path_699" fill="none" stroke="rgb(115, 161, 191)" stroke-width="1" d="M350 465V558L370 558" transform="translate( 0 0 )"></path><path id="kity_path_700" fill="none" stroke="rgb(115, 161, 191)" stroke-width="1" d="M350 465V610L370 610" transform="translate( 0 0 )"></path><path id="kity_path_701" fill="none" stroke="rgb(115, 161, 191)" stroke-width="1" d="M350 673V714L370 714" transform="translate( 0 0 )"></path><path id="kity_path_702" fill="none" stroke="rgb(115, 161, 191)" stroke-width="1" d="M350 777V818L370 818" transform="translate( 0 0 )"></path><path id="kity_path_703" fill="none" stroke="rgb(115, 161, 191)" stroke-width="1" d="M350 777V870L370 870" transform="translate( 0 0 )"></path><path id="kity_path_704" fill="none" stroke="rgb(115, 161, 191)" stroke-width="1" d="M350 777V922L370 922" transform="translate( 0 0 )"></path><path id="kity_path_705" fill="none" stroke="rgb(115, 161, 191)" stroke-width="1" d="M350 777V974L370 974" transform="translate( 0 0 )"></path><path id="kity_path_707" fill="none" stroke="rgb(115, 161, 191)" stroke-width="1" d="M159 153V194L179 194" transform="translate( 0 0 )"></path><path id="kity_path_715" fill="none" stroke="rgb(115, 161, 191)" stroke-width="1" d="M159 153V246L179 246" transform="translate( 0 0 )"></path><path id="kity_path_723" fill="none" stroke="rgb(115, 161, 191)" stroke-width="1" d="M159 309V350L179 350" transform="translate( 0 0 )"></path><path id="kity_path_731" fill="none" stroke="rgb(115, 161, 191)" stroke-width="1" d="M159 309V402L179 402" transform="translate( 0 0 )"></path><path id="kity_path_739" fill="none" stroke="rgb(115, 161, 191)" stroke-width="1" d="M-229 153V194L-209 194" transform="translate( 0 0 )"></path><path id="kity_path_747" fill="none" stroke="rgb(115, 161, 191)" stroke-width="1" d="M-229 257V298L-209 298" transform="translate( 0 0 )"></path><path id="kity_path_755" fill="none" stroke="rgb(115, 161, 191)" stroke-width="1" d="M-229 361V402L-209 402" transform="translate( 0 0 )"></path><path id="kity_path_763" fill="none" stroke="rgb(115, 161, 191)" stroke-width="1" d="M-29 153V194L-9 194" transform="translate( 0 0 )"></path><path id="kity_path_771" fill="none" stroke="rgb(115, 161, 191)" stroke-width="1" d="M-29 153V246L-9 246" transform="translate( 0 0 )"></path><path id="kity_path_779" fill="none" stroke="rgb(115, 161, 191)" stroke-width="1" d="M-29 153V298L-9 298" transform="translate( 0 0 )"></path><path id="kity_path_795" fill="none" stroke="rgb(115, 161, 191)" stroke-width="1" d="M-29 153V350L-9 350" transform="translate( 0 0 )"></path><path id="kity_path_803" fill="none" stroke="rgb(115, 161, 191)" stroke-width="1" d="M-29 413V454L-9 454" transform="translate( 0 0 )"></path><path id="kity_path_811" fill="none" stroke="rgb(115, 161, 191)" stroke-width="1" d="M-29 517V558L-9 558" transform="translate( 0 0 )"></path><path id="kity_path_819" fill="none" stroke="rgb(115, 161, 191)" stroke-width="1" d="M-29 621V662L-9 662" transform="translate( 0 0 )"></path></g><g id="minder_node1" transform="matrix( 1 0 0 1 0 0 )"><path id="node_outline1" fill="rgb(115, 161, 191)" stroke="rgb(115, 161, 191)" d="M-19,-20h134a5,5,0,0,1,5,5v30a5,5,0,0,1,-5,5h-134a5,5,0,0,1,-5,-5v-30a5,5,0,0,1,5,-5z" stroke-width="3"></path><g id="node_text1" transform="translate( 0 -2.4 )" fill="white"><text id="kity_text_22" text-rendering="inherit" dominant-baseline="text-before-edge" font-size="16" dy="0" y="-8">班级网站系统</text></g></g><g id="kity_g_14" display="none"><path id="kity_path_15" fill="rgba(0, 92, 153, 0.5)" stroke="none" d="M291,70h20v26h-20z"></path><path id="kity_path_16" fill="none" stroke="rgb(0, 76, 128)" d="M311,70L311,96" stroke-width="1"></path></g><g id="minder_node2" transform="matrix( 1 0 0 1 -269 83 )"><g id="node_expander4" transform="translate( 28 -20 )" style="cursor: pointer;"><path id="kity_path_220" fill="white" stroke="gray" d="M6,0A6,6,0,1,1,-6,0A6,6,0,1,1,6,0"></path><path id="kity_path_221" fill="none" stroke="gray" d="M-4.5,0L4.5,0"></path></g><path id="node_outline5" fill="rgb(238, 243, 246)" stroke="rgb(115, 161, 191)" d="M-17,-13h90a3,3,0,0,1,3,3v20a3,3,0,0,1,-3,3h-90a3,3,0,0,1,-3,-3v-20a3,3,0,0,1,3,-3z" stroke-width="1"></path><g id="node_text5" transform="translate( 0 -2.1 )" fill="black"><text id="kity_text_109" text-rendering="inherit" dominant-baseline="text-before-edge" font-size="14" dy="0" y="-7">首页正文</text></g></g><g id="minder_node6" transform="matrix( 1 0 0 1 -69 83 )"><g id="node_expander9" transform="translate( 28 -20 )" style="cursor: pointer;"><path id="kity_path_235" fill="white" stroke="gray" d="M6,0A6,6,0,1,1,-6,0A6,6,0,1,1,6,0"></path><path id="kity_path_236" fill="none" stroke="gray" d="M-4.5,0L4.5,0"></path></g><path id="node_outline10" fill="rgb(238, 243, 246)" stroke="rgb(115, 161, 191)" d="M-17,-13h90a3,3,0,0,1,3,3v20a3,3,0,0,1,-3,3h-90a3,3,0,0,1,-3,-3v-20a3,3,0,0,1,3,-3z" stroke-width="1"></path><g id="node_text10" transform="translate( 0 -2.1 )" fill="black"><text id="kity_text_119" text-rendering="inherit" dominant-baseline="text-before-edge" font-size="14" dy="0" y="-7">首页右侧</text></g></g><g id="minder_node7" transform="matrix( 1 0 0 1 -39 142 )"><g id="node_expander5" transform="translate( -16 0 )" style="cursor: pointer;"><path id="kity_path_223" fill="white" stroke="gray" d="M6,0A6,6,0,1,1,-6,0A6,6,0,1,1,6,0"></path><path id="kity_path_224" fill="none" stroke="gray" d="M-4.5,0L4.5,0"></path></g><path id="node_outline6" fill="transparent" stroke="none" d="M-5,-11h58a5,5,0,0,1,5,5v12a5,5,0,0,1,-5,5h-58a5,5,0,0,1,-5,-5v-12a5,5,0,0,1,5,-5z" stroke-width="3"></path><g id="node_text6" transform="translate( 0 -1.7999999999999998 )" fill="black"><text id="kity_text_111" text-rendering="inherit" dominant-baseline="text-before-edge" font-size="12" dy="0" y="-6">班级信息</text></g></g><g id="minder_node8" transform="matrix( 1 0 0 1 -39 402 )"><g id="node_expander6" transform="translate( -16 0 )" style="cursor: pointer;"><path id="kity_path_226" fill="white" stroke="gray" d="M6,0A6,6,0,1,1,-6,0A6,6,0,1,1,6,0"></path><path id="kity_path_227" fill="none" stroke="gray" d="M-4.5,0L4.5,0"></path></g><path id="node_outline7" fill="transparent" stroke="none" d="M-5,-11h58a5,5,0,0,1,5,5v12a5,5,0,0,1,-5,5h-58a5,5,0,0,1,-5,-5v-12a5,5,0,0,1,5,-5z" stroke-width="3"></path><g id="node_text7" transform="translate( 0 -1.7999999999999998 )" fill="black"><text id="kity_text_113" text-rendering="inherit" dominant-baseline="text-before-edge" font-size="12" dy="0" y="-6">近期活动</text></g></g><g id="minder_node9" transform="matrix( 1 0 0 1 -39 506 )"><g id="node_expander7" transform="translate( -16 0 )" style="cursor: pointer;"><path id="kity_path_229" fill="white" stroke="gray" d="M6,0A6,6,0,1,1,-6,0A6,6,0,1,1,6,0"></path><path id="kity_path_230" fill="none" stroke="gray" d="M-4.5,0L4.5,0"></path></g><path id="node_outline8" fill="transparent" stroke="none" d="M-5,-11h46a5,5,0,0,1,5,5v12a5,5,0,0,1,-5,5h-46a5,5,0,0,1,-5,-5v-12a5,5,0,0,1,5,-5z" stroke-width="3"></path><g id="node_text8" transform="translate( 0 -1.7999999999999998 )" fill="black"><text id="kity_text_115" text-rendering="inherit" dominant-baseline="text-before-edge" font-size="12" dy="0" y="-6">标签云</text></g></g><g id="minder_node10" transform="matrix( 1 0 0 1 -39 610 )"><g id="node_expander8" transform="translate( -16 0 )" style="cursor: pointer;"><path id="kity_path_232" fill="white" stroke="gray" d="M6,0A6,6,0,1,1,-6,0A6,6,0,1,1,6,0"></path><path id="kity_path_233" fill="none" stroke="gray" d="M-4.5,0L4.5,0"></path></g><path id="node_outline9" fill="transparent" stroke="none" d="M-5,-11h58a5,5,0,0,1,5,5v12a5,5,0,0,1,-5,5h-58a5,5,0,0,1,-5,-5v-12a5,5,0,0,1,5,-5z" stroke-width="3"></path><g id="node_text9" transform="translate( 0 -1.7999999999999998 )" fill="black"><text id="kity_text_117" text-rendering="inherit" dominant-baseline="text-before-edge" font-size="12" dy="0" y="-6">最近访问</text></g></g><g id="minder_node12" transform="matrix( 1 0 0 1 340 298 )" opacity="1"><g id="node_expander13" transform="translate( -16 0 )" style="cursor: pointer;"><path id="kity_path_247" fill="white" stroke="gray" d="M6,0A6,6,0,1,1,-6,0A6,6,0,1,1,6,0"></path><path id="kity_path_248" fill="none" stroke="gray" d="M-4.5,0L4.5,0"></path></g><path id="node_outline14" fill="transparent" stroke="none" d="M-5,-11h34a5,5,0,0,1,5,5v12a5,5,0,0,1,-5,5h-34a5,5,0,0,1,-5,-5v-12a5,5,0,0,1,5,-5z" stroke-width="3"></path><g id="node_text14" transform="translate( 0 -1.7999999999999998 )" fill="black"><text id="kity_text_127" text-rendering="inherit" dominant-baseline="text-before-edge" font-size="12" dy="0" y="-6">通讯</text></g></g><g id="minder_node15" transform="matrix( 1 0 0 1 340 454 )" opacity="1"><g id="node_expander17" transform="translate( -16 0 )" style="cursor: pointer;"><path id="kity_path_259" fill="white" stroke="gray" d="M6,0A6,6,0,1,1,-6,0A6,6,0,1,1,6,0"></path><path id="kity_path_260" fill="none" stroke="gray" d="M-4.5,0L4.5,0"></path></g><path id="node_outline18" fill="transparent" stroke="none" d="M-5,-11h34a5,5,0,0,1,5,5v12a5,5,0,0,1,-5,5h-34a5,5,0,0,1,-5,-5v-12a5,5,0,0,1,5,-5z" stroke-width="3"></path><g id="node_text18" transform="translate( 0 -1.7999999999999998 )" fill="black"><text id="kity_text_135" text-rendering="inherit" dominant-baseline="text-before-edge" font-size="12" dy="0" y="-6">相册</text></g></g><g id="minder_node19" transform="matrix( 1 0 0 1 340 662 )" opacity="1"><g id="node_expander19" transform="translate( -16 0 )" style="cursor: pointer;"><path id="kity_path_265" fill="white" stroke="gray" d="M6,0A6,6,0,1,1,-6,0A6,6,0,1,1,6,0"></path><path id="kity_path_266" fill="none" stroke="gray" d="M-4.5,0L4.5,0"></path></g><path id="node_outline20" fill="transparent" stroke="none" d="M-5,-11h34a5,5,0,0,1,5,5v12a5,5,0,0,1,-5,5h-34a5,5,0,0,1,-5,-5v-12a5,5,0,0,1,5,-5z" stroke-width="3"></path><g id="node_text20" transform="translate( 0 -1.7999999999999998 )" fill="black"><text id="kity_text_139" text-rendering="inherit" dominant-baseline="text-before-edge" font-size="12" dy="0" y="-6">文章</text></g></g><g id="minder_node21" transform="matrix( 1 0 0 1 340 766 )" opacity="1"><g id="node_expander24" transform="translate( -16 0 )" style="cursor: pointer;"><path id="kity_path_280" fill="white" stroke="gray" d="M6,0A6,6,0,1,1,-6,0A6,6,0,1,1,6,0"></path><path id="kity_path_281" fill="none" stroke="gray" d="M-4.5,0L4.5,0"></path></g><path id="node_outline25" fill="transparent" stroke="none" d="M-5,-11h34a5,5,0,0,1,5,5v12a5,5,0,0,1,-5,5h-34a5,5,0,0,1,-5,-5v-12a5,5,0,0,1,5,-5z" stroke-width="3"></path><g id="node_text25" transform="translate( 0 -1.7999999999999998 )" fill="black"><text id="kity_text_149" text-rendering="inherit" dominant-baseline="text-before-edge" font-size="12" dy="0" y="-6">资源</text></g></g><g id="minder_node26" transform="matrix( 1 0 0 1 340 1026 )" opacity="1"><g id="node_expander31" transform="translate( -16 0 )" style="cursor: pointer;" display="none"><path id="kity_path_301" fill="white" stroke="gray" d="M6,0A6,6,0,1,1,-6,0A6,6,0,1,1,6,0"></path><path id="kity_path_302" fill="none" stroke="gray" d="M-4.5,0L4.5,0"></path></g><path id="node_outline32" fill="transparent" stroke="none" d="M-5,-11h34a5,5,0,0,1,5,5v12a5,5,0,0,1,-5,5h-34a5,5,0,0,1,-5,-5v-12a5,5,0,0,1,5,-5z" stroke-width="3"></path><g id="node_text32" transform="translate( 0 -1.7999999999999998 )" fill="black"><text id="kity_text_163" text-rendering="inherit" dominant-baseline="text-before-edge" font-size="12" dy="0" y="-6">登录</text></g></g><g id="minder_node42" transform="matrix( 1 0 0 1 119 83 )" opacity="1"><g id="node_expander41" transform="translate( 28 -20 )" style="cursor: pointer;"><path id="kity_path_356" fill="white" stroke="gray" d="M6,0A6,6,0,1,1,-6,0A6,6,0,1,1,6,0"></path><path id="kity_path_357" fill="none" stroke="gray" d="M-4.5,0L4.5,0"></path></g><path id="node_outline42" fill="rgb(238, 243, 246)" stroke="rgb(115, 161, 191)" d="M-17,-13h90a3,3,0,0,1,3,3v20a3,3,0,0,1,-3,3h-90a3,3,0,0,1,-3,-3v-20a3,3,0,0,1,3,-3z" stroke-width="1"></path><g id="node_text42" transform="translate( 0 -2.1 )" fill="black"><text id="kity_text_353" text-rendering="inherit" dominant-baseline="text-before-edge" font-size="14" dy="0" y="-7">首页底部</text></g></g><g id="minder_node44" transform="matrix( 1 0 0 1 -239 142 )"><g id="node_expander43" transform="translate( -16 0 )" style="cursor: pointer;"><path id="kity_path_372" fill="white" stroke="gray" d="M6,0A6,6,0,1,1,-6,0A6,6,0,1,1,6,0"></path><path id="kity_path_373" fill="none" stroke="gray" d="M-4.5,0L4.5,0"></path></g><path id="node_outline44" fill="transparent" stroke="none" d="M-5,-11h58a5,5,0,0,1,5,5v12a5,5,0,0,1,-5,5h-58a5,5,0,0,1,-5,-5v-12a5,5,0,0,1,5,-5z" stroke-width="3"></path><g id="node_text44" transform="translate( 0 -1.7999999999999998 )" fill="black"><text id="kity_text_369" text-rendering="inherit" dominant-baseline="text-before-edge" font-size="12" dy="0" y="-6">今日课表</text></g></g><g id="minder_node45" transform="matrix( 1 0 0 1 -239 246 )"><g id="node_expander44" transform="translate( -16 0 )" style="cursor: pointer;"><path id="kity_path_380" fill="white" stroke="gray" d="M6,0A6,6,0,1,1,-6,0A6,6,0,1,1,6,0"></path><path id="kity_path_381" fill="none" stroke="gray" d="M-4.5,0L4.5,0"></path></g><path id="node_outline45" fill="transparent" stroke="none" d="M-5,-11h58a5,5,0,0,1,5,5v12a5,5,0,0,1,-5,5h-58a5,5,0,0,1,-5,-5v-12a5,5,0,0,1,5,-5z" stroke-width="3"></path><g id="node_text45" transform="translate( 0 -1.7999999999999998 )" fill="black"><text id="kity_text_377" text-rendering="inherit" dominant-baseline="text-before-edge" font-size="12" dy="0" y="-6">本周作业</text></g></g><g id="minder_node46" transform="matrix( 1 0 0 1 -239 350 )"><g id="node_expander45" transform="translate( -16 0 )" style="cursor: pointer;"><path id="kity_path_388" fill="white" stroke="gray" d="M6,0A6,6,0,1,1,-6,0A6,6,0,1,1,6,0"></path><path id="kity_path_389" fill="none" stroke="gray" d="M-4.5,0L4.5,0"></path></g><path id="node_outline46" fill="transparent" stroke="none" d="M-5,-11h58a5,5,0,0,1,5,5v12a5,5,0,0,1,-5,5h-58a5,5,0,0,1,-5,-5v-12a5,5,0,0,1,5,-5z" stroke-width="3"></path><g id="node_text46" transform="translate( 0 -1.7999999999999998 )" fill="black"><text id="kity_text_385" text-rendering="inherit" dominant-baseline="text-before-edge" font-size="12" dy="0" y="-6">近期文章</text></g></g><g id="minder_node47" transform="matrix( 1 0 0 1 -39 714 )"><g id="node_expander46" transform="translate( -16 0 )" style="cursor: pointer;" display="none"><path id="kity_path_396" fill="white" stroke="gray" d="M6,0A6,6,0,1,1,-6,0A6,6,0,1,1,6,0"></path><path id="kity_path_397" fill="none" stroke="gray"></path></g><path id="node_outline47" fill="transparent" stroke="none" d="M-5,-11h46a5,5,0,0,1,5,5v12a5,5,0,0,1,-5,5h-46a5,5,0,0,1,-5,-5v-12a5,5,0,0,1,5,-5z" stroke-width="3"></path><g id="node_text47" transform="translate( 0 -1.7999999999999998 )" fill="black"><text id="kity_text_393" text-rendering="inherit" dominant-baseline="text-before-edge" font-size="12" dy="0" y="-6">播放器</text></g></g><g id="minder_node48" transform="matrix( 1 0 0 1 149 142 )"><g id="node_expander47" transform="translate( -16 0 )" style="cursor: pointer;"><path id="kity_path_404" fill="white" stroke="gray" d="M6,0A6,6,0,1,1,-6,0A6,6,0,1,1,6,0"></path><path id="kity_path_405" fill="none" stroke="gray" d="M-4.5,0L4.5,0"></path></g><path id="node_outline48" fill="transparent" stroke="none" d="M-5,-11h58a5,5,0,0,1,5,5v12a5,5,0,0,1,-5,5h-58a5,5,0,0,1,-5,-5v-12a5,5,0,0,1,5,-5z" stroke-width="3"></path><g id="node_text48" transform="translate( 0 -1.7999999999999998 )" fill="black"><text id="kity_text_401" text-rendering="inherit" dominant-baseline="text-before-edge" font-size="12" dy="0" y="-6">友情链接</text></g></g><g id="minder_node49" transform="matrix( 1 0 0 1 149 298 )"><g id="node_expander48" transform="translate( -16 0 )" style="cursor: pointer;"><path id="kity_path_412" fill="white" stroke="gray" d="M6,0A6,6,0,1,1,-6,0A6,6,0,1,1,6,0"></path><path id="kity_path_413" fill="none" stroke="gray" d="M-4.5,0L4.5,0"></path></g><path id="node_outline49" fill="transparent" stroke="none" d="M-5,-11h58a5,5,0,0,1,5,5v12a5,5,0,0,1,-5,5h-58a5,5,0,0,1,-5,-5v-12a5,5,0,0,1,5,-5z" stroke-width="3"></path><g id="node_text49" transform="translate( 0 -1.7999999999999998 )" fill="black"><text id="kity_text_409" text-rendering="inherit" dominant-baseline="text-before-edge" font-size="12" dy="0" y="-6">联系方式</text></g></g><g id="minder_node50" transform="matrix( 1 0 0 1 149 454 )"><g id="node_expander49" transform="translate( -16 0 )" style="cursor: pointer;"><path id="kity_path_420" fill="white" stroke="gray" d="M6,0A6,6,0,1,1,-6,0A6,6,0,1,1,6,0"></path><path id="kity_path_421" fill="none" stroke="gray" d="M-4.5,0L4.5,0"></path></g><path id="node_outline50" fill="transparent" stroke="none" d="M-5,-11h58a5,5,0,0,1,5,5v12a5,5,0,0,1,-5,5h-58a5,5,0,0,1,-5,-5v-12a5,5,0,0,1,5,-5z" stroke-width="3"></path><g id="node_text50" transform="translate( 0 -1.7999999999999998 )" fill="black"><text id="kity_text_417" text-rendering="inherit" dominant-baseline="text-before-edge" font-size="12" dy="0" y="-6">关于本站</text></g></g><g id="minder_node51" transform="matrix( 1 0 0 1 189 506 )"><g id="node_expander50" transform="translate( -16 0 )" style="cursor: pointer;" display="none"><path id="kity_path_428" fill="white" stroke="gray" d="M6,0A6,6,0,1,1,-6,0A6,6,0,1,1,6,0"></path><path id="kity_path_429" fill="none" stroke="gray"></path></g><path id="node_outline51" fill="transparent" stroke="none" d="M-5,-11h58a5,5,0,0,1,5,5v12a5,5,0,0,1,-5,5h-58a5,5,0,0,1,-5,-5v-12a5,5,0,0,1,5,-5z" stroke-width="3"></path><g id="node_text51" transform="translate( 0 -1.7999999999999998 )" fill="black"><text id="kity_text_425" text-rendering="inherit" dominant-baseline="text-before-edge" font-size="12" dy="0" y="-6">本站信息</text></g></g><g id="minder_node30" transform="matrix( 1 0 0 1 189 558 )"><g id="node_expander51" transform="translate( -16 0 )" style="cursor: pointer;" display="none"><path id="kity_path_436" fill="white" stroke="gray" d="M6,0A6,6,0,1,1,-6,0A6,6,0,1,1,6,0"></path><path id="kity_path_437" fill="none" stroke="gray"></path></g><path id="node_outline30" fill="transparent" stroke="none" d="M-5,-11h34a5,5,0,0,1,5,5v12a5,5,0,0,1,-5,5h-34a5,5,0,0,1,-5,-5v-12a5,5,0,0,1,5,-5z" stroke-width="3"></path><g id="node_text30" transform="translate( 0 -1.7999999999999998 )" fill="black"><text id="kity_text_433" text-rendering="inherit" dominant-baseline="text-before-edge" font-size="12" dy="0" y="-6">帮助</text></g></g><g id="minder_node81" transform="matrix( 1 0 0 1 310 83 )"><g id="node_expander80" transform="translate( 28 -20 )" style="cursor: pointer;"><path id="kity_path_670" fill="white" stroke="gray" d="M6,0A6,6,0,1,1,-6,0A6,6,0,1,1,6,0"></path><path id="kity_path_671" fill="none" stroke="gray" d="M-4.5,0L4.5,0"></path></g><path id="node_outline81" fill="rgb(238, 243, 246)" stroke="rgb(115, 161, 191)" d="M-17,-13h90a3,3,0,0,1,3,3v20a3,3,0,0,1,-3,3h-90a3,3,0,0,1,-3,-3v-20a3,3,0,0,1,3,-3z" stroke-width="1"></path><g id="node_text81" transform="translate( 0 -2.1 )" fill="black"><text id="kity_text_667" text-rendering="inherit" dominant-baseline="text-before-edge" font-size="14" dy="0" y="-7">首页导航</text></g></g><g id="minder_node82" transform="matrix( 1 0 0 1 340 142 )"><g id="node_expander81" transform="translate( -16 0 )" style="cursor: pointer;" display="none"><path id="kity_path_678" fill="white" stroke="gray" d="M6,0A6,6,0,1,1,-6,0A6,6,0,1,1,6,0"></path><path id="kity_path_679" fill="none" stroke="gray"></path></g><path id="node_outline82" fill="transparent" stroke="none" d="M-5,-11h34a5,5,0,0,1,5,5v12a5,5,0,0,1,-5,5h-34a5,5,0,0,1,-5,-5v-12a5,5,0,0,1,5,-5z" stroke-width="3"></path><g id="node_text82" transform="translate( 0 -1.7999999999999998 )" fill="black"><text id="kity_text_675" text-rendering="inherit" dominant-baseline="text-before-edge" font-size="12" dy="0" y="-6">首页</text></g></g><g id="minder_node83" transform="matrix( 1 0 0 1 340 194 )"><g id="node_expander82" transform="translate( -16 0 )" style="cursor: pointer;"><path id="kity_path_686" fill="white" stroke="gray" d="M6,0A6,6,0,1,1,-6,0A6,6,0,1,1,6,0"></path><path id="kity_path_687" fill="none" stroke="gray" d="M-4.5,0L4.5,0"></path></g><path id="node_outline83" fill="transparent" stroke="none" d="M-5,-11h34a5,5,0,0,1,5,5v12a5,5,0,0,1,-5,5h-34a5,5,0,0,1,-5,-5v-12a5,5,0,0,1,5,-5z" stroke-width="3"></path><g id="node_text83" transform="translate( 0 -1.7999999999999998 )" fill="black"><text id="kity_text_683" text-rendering="inherit" dominant-baseline="text-before-edge" font-size="12" dy="0" y="-6">贴吧</text></g></g><g id="minder_node84" transform="matrix( 1 0 0 1 380 246 )"><g id="node_expander83" transform="translate( -16 0 )" style="cursor: pointer;" display="none"><path id="kity_path_694" fill="white" stroke="gray" d="M6,0A6,6,0,1,1,-6,0A6,6,0,1,1,6,0"></path><path id="kity_path_695" fill="none" stroke="gray"></path></g><path id="node_outline84" fill="transparent" stroke="none" d="M-5,-11h34a5,5,0,0,1,5,5v12a5,5,0,0,1,-5,5h-34a5,5,0,0,1,-5,-5v-12a5,5,0,0,1,5,-5z" stroke-width="3"></path><g id="node_text84" transform="translate( 0 -1.7999999999999998 )" fill="black"><text id="kity_text_691" text-rendering="inherit" dominant-baseline="text-before-edge" font-size="12" dy="0" y="-6">贴子</text></g></g><g id="minder_node13" transform="matrix( 1 0 0 1 380 350 )"><g id="node_expander11" transform="translate( -16 0 )" style="cursor: pointer;" display="none"><path id="kity_path_241" fill="white" stroke="gray" d="M6,0A6,6,0,1,1,-6,0A6,6,0,1,1,6,0"></path><path id="kity_path_242" fill="none" stroke="gray"></path></g><path id="node_outline12" fill="transparent" stroke="rgb(57, 80, 96)" d="M-5,-11h34a5,5,0,0,1,5,5v12a5,5,0,0,1,-5,5h-34a5,5,0,0,1,-5,-5v-12a5,5,0,0,1,5,-5z" stroke-width="3"></path><g id="node_text12" transform="translate( 0 -1.7999999999999998 )" fill="black"><text id="kity_text_123" text-rendering="inherit" dominant-baseline="text-before-edge" font-size="12" dy="0" y="-6">教师</text></g></g><g id="minder_node78" transform="matrix( 1 0 0 1 380 402 )"><g id="node_expander77" transform="translate( -16 0 )" style="cursor: pointer;" display="none"><path id="kity_path_646" fill="white" stroke="gray" d="M6,0A6,6,0,1,1,-6,0A6,6,0,1,1,6,0"></path><path id="kity_path_647" fill="none" stroke="gray"></path></g><path id="node_outline78" fill="transparent" stroke="none" d="M-5,-11h34a5,5,0,0,1,5,5v12a5,5,0,0,1,-5,5h-34a5,5,0,0,1,-5,-5v-12a5,5,0,0,1,5,-5z" stroke-width="3"></path><g id="node_text78" transform="translate( 0 -1.7999999999999998 )" fill="black"><text id="kity_text_643" text-rendering="inherit" dominant-baseline="text-before-edge" font-size="12" dy="0" y="-6">同学</text></g></g><g id="minder_node16" transform="matrix( 1 0 0 1 380 506 )"><g id="node_expander14" transform="translate( -16 0 )" style="cursor: pointer;" display="none"><path id="kity_path_250" fill="white" stroke="gray" d="M6,0A6,6,0,1,1,-6,0A6,6,0,1,1,6,0"></path><path id="kity_path_251" fill="none" stroke="gray"></path></g><path id="node_outline15" fill="transparent" stroke="none" d="M-5,-11h46a5,5,0,0,1,5,5v12a5,5,0,0,1,-5,5h-46a5,5,0,0,1,-5,-5v-12a5,5,0,0,1,5,-5z" stroke-width="3"></path><g id="node_text15" transform="translate( 0 -1.7999999999999998 )" fill="black"><text id="kity_text_129" text-rendering="inherit" dominant-baseline="text-before-edge" font-size="12" dy="0" y="-6">相册一</text></g></g><g id="minder_node17" transform="matrix( 1 0 0 1 380 558 )"><g id="node_expander15" transform="translate( -16 0 )" style="cursor: pointer;" display="none"><path id="kity_path_253" fill="white" stroke="gray" d="M6,0A6,6,0,1,1,-6,0A6,6,0,1,1,6,0"></path><path id="kity_path_254" fill="none" stroke="gray"></path></g><path id="node_outline16" fill="transparent" stroke="none" d="M-5,-11h46a5,5,0,0,1,5,5v12a5,5,0,0,1,-5,5h-46a5,5,0,0,1,-5,-5v-12a5,5,0,0,1,5,-5z" stroke-width="3"></path><g id="node_text16" transform="translate( 0 -1.7999999999999998 )" fill="black"><text id="kity_text_131" text-rendering="inherit" dominant-baseline="text-before-edge" font-size="12" dy="0" y="-6">相册二</text></g></g><g id="minder_node77" transform="matrix( 1 0 0 1 380 610 )"><g id="node_expander76" transform="translate( -16 0 )" style="cursor: pointer;" display="none"><path id="kity_path_638" fill="white" stroke="gray" d="M6,0A6,6,0,1,1,-6,0A6,6,0,1,1,6,0"></path><path id="kity_path_639" fill="none" stroke="gray"></path></g><path id="node_outline77" fill="transparent" stroke="none" d="M-5,-11h46a5,5,0,0,1,5,5v12a5,5,0,0,1,-5,5h-46a5,5,0,0,1,-5,-5v-12a5,5,0,0,1,5,-5z" stroke-width="3"></path><g id="node_text77" transform="translate( 0 -1.7999999999999998 )" fill="black"><text id="kity_text_635" text-rendering="inherit" dominant-baseline="text-before-edge" font-size="12" dy="0" y="-6">相册三</text></g></g><g id="minder_node20" transform="matrix( 1 0 0 1 380 714 )"><g id="node_expander18" transform="translate( -16 0 )" style="cursor: pointer;" display="none"><path id="kity_path_262" fill="white" stroke="gray" d="M6,0A6,6,0,1,1,-6,0A6,6,0,1,1,6,0"></path><path id="kity_path_263" fill="none" stroke="gray"></path></g><path id="node_outline19" fill="transparent" stroke="none" d="M-5,-11h58a5,5,0,0,1,5,5v12a5,5,0,0,1,-5,5h-58a5,5,0,0,1,-5,-5v-12a5,5,0,0,1,5,-5z" stroke-width="3"></path><g id="node_text19" transform="translate( 0 -1.7999999999999998 )" fill="black"><text id="kity_text_137" text-rendering="inherit" dominant-baseline="text-before-edge" font-size="12" dy="0" y="-6">具体文章</text></g></g><g id="minder_node22" transform="matrix( 1 0 0 1 380 818 )"><g id="node_expander20" transform="translate( -16 0 )" style="cursor: pointer;" display="none"><path id="kity_path_268" fill="white" stroke="gray" d="M6,0A6,6,0,1,1,-6,0A6,6,0,1,1,6,0"></path><path id="kity_path_269" fill="none" stroke="gray"></path></g><path id="node_outline21" fill="transparent" stroke="none" d="M-5,-11h58a5,5,0,0,1,5,5v12a5,5,0,0,1,-5,5h-58a5,5,0,0,1,-5,-5v-12a5,5,0,0,1,5,-5z" stroke-width="3"></path><g id="node_text21" transform="translate( 0 -1.7999999999999998 )" fill="black"><text id="kity_text_141" text-rendering="inherit" dominant-baseline="text-before-edge" font-size="12" dy="0" y="-6">课程文件</text></g></g><g id="minder_node74" transform="matrix( 1 0 0 1 380 870 )"><g id="node_expander73" transform="translate( -16 0 )" style="cursor: pointer;" display="none"><path id="kity_path_614" fill="white" stroke="gray" d="M6,0A6,6,0,1,1,-6,0A6,6,0,1,1,6,0"></path><path id="kity_path_615" fill="none" stroke="gray"></path></g><path id="node_outline74" fill="transparent" stroke="none" d="M-5,-11h58a5,5,0,0,1,5,5v12a5,5,0,0,1,-5,5h-58a5,5,0,0,1,-5,-5v-12a5,5,0,0,1,5,-5z" stroke-width="3"></path><g id="node_text74" transform="translate( 0 -1.7999999999999998 )" fill="black"><text id="kity_text_611" text-rendering="inherit" dominant-baseline="text-before-edge" font-size="12" dy="0" y="-6">软件资源</text></g></g><g id="minder_node75" transform="matrix( 1 0 0 1 380 922 )"><g id="node_expander74" transform="translate( -16 0 )" style="cursor: pointer;" display="none"><path id="kity_path_622" fill="white" stroke="gray" d="M6,0A6,6,0,1,1,-6,0A6,6,0,1,1,6,0"></path><path id="kity_path_623" fill="none" stroke="gray"></path></g><path id="node_outline75" fill="transparent" stroke="none" d="M-5,-11h58a5,5,0,0,1,5,5v12a5,5,0,0,1,-5,5h-58a5,5,0,0,1,-5,-5v-12a5,5,0,0,1,5,-5z" stroke-width="3"></path><g id="node_text75" transform="translate( 0 -1.7999999999999998 )" fill="black"><text id="kity_text_619" text-rendering="inherit" dominant-baseline="text-before-edge" font-size="12" dy="0" y="-6">学校通知</text></g></g><g id="minder_node76" transform="matrix( 1 0 0 1 380 974 )"><g id="node_expander75" transform="translate( -16 0 )" style="cursor: pointer;" display="none"><path id="kity_path_630" fill="white" stroke="gray" d="M6,0A6,6,0,1,1,-6,0A6,6,0,1,1,6,0"></path><path id="kity_path_631" fill="none" stroke="gray"></path></g><path id="node_outline76" fill="transparent" stroke="none" d="M-5,-11h58a5,5,0,0,1,5,5v12a5,5,0,0,1,-5,5h-58a5,5,0,0,1,-5,-5v-12a5,5,0,0,1,5,-5z" stroke-width="3"></path><g id="node_text76" transform="translate( 0 -1.7999999999999998 )" fill="black"><text id="kity_text_627" text-rendering="inherit" dominant-baseline="text-before-edge" font-size="12" dy="0" y="-6">活动照片</text></g></g><g id="kity_g_12" display="none"><path id="kity_path_13" fill="none" stroke="rgb(66, 94, 112)" d="M319,70h90a3,3,0,0,1,3,3v20a3,3,0,0,1,-3,3h-90a3,3,0,0,1,-3,-3v-20a3,3,0,0,1,3,-3z" stroke-width="5"></path></g><g id="minder_node85" transform="matrix( 1 0 0 1 189 194 )"><g id="node_expander84" transform="translate( -16 0 )" style="cursor: pointer;" display="none"><path id="kity_path_712" fill="white" stroke="gray" d="M6,0A6,6,0,1,1,-6,0A6,6,0,1,1,6,0"></path><path id="kity_path_713" fill="none" stroke="gray"></path></g><path id="node_outline85" fill="transparent" stroke="none" d="M-5,-11h58a5,5,0,0,1,5,5v12a5,5,0,0,1,-5,5h-58a5,5,0,0,1,-5,-5v-12a5,5,0,0,1,5,-5z" stroke-width="3"></path><g id="node_text85" transform="translate( 0 -1.7999999999999998 )" fill="black"><text id="kity_text_709" text-rendering="inherit" dominant-baseline="text-before-edge" font-size="12" dy="0" y="-6">西大官网</text></g></g><g id="minder_node86" transform="matrix( 1 0 0 1 189 246 )"><g id="node_expander85" transform="translate( -16 0 )" style="cursor: pointer;" display="none"><path id="kity_path_720" fill="white" stroke="gray" d="M6,0A6,6,0,1,1,-6,0A6,6,0,1,1,6,0"></path><path id="kity_path_721" fill="none" stroke="gray"></path></g><path id="node_outline86" fill="transparent" stroke="none" d="M-5,-11h61a5,5,0,0,1,5,5v12a5,5,0,0,1,-5,5h-61a5,5,0,0,1,-5,-5v-12a5,5,0,0,1,5,-5z" stroke-width="3"></path><g id="node_text86" transform="translate( 0 -1.7999999999999998 )" fill="black"><text id="kity_text_717" text-rendering="inherit" dominant-baseline="text-before-edge" font-size="12" dy="0" y="-6">wyhblog</text></g></g><g id="minder_node87" transform="matrix( 1 0 0 1 189 350 )"><g id="node_expander86" transform="translate( -16 0 )" style="cursor: pointer;" display="none"><path id="kity_path_728" fill="white" stroke="gray" d="M6,0A6,6,0,1,1,-6,0A6,6,0,1,1,6,0"></path><path id="kity_path_729" fill="none" stroke="gray"></path></g><path id="node_outline87" fill="transparent" stroke="none" d="M-5,-11h34a5,5,0,0,1,5,5v12a5,5,0,0,1,-5,5h-34a5,5,0,0,1,-5,-5v-12a5,5,0,0,1,5,-5z" stroke-width="3"></path><g id="node_text87" transform="translate( 0 -1.7999999999999998 )" fill="black"><text id="kity_text_725" text-rendering="inherit" dominant-baseline="text-before-edge" font-size="12" dy="0" y="-6">电话</text></g></g><g id="minder_node88" transform="matrix( 1 0 0 1 189 402 )"><g id="node_expander87" transform="translate( -16 0 )" style="cursor: pointer;" display="none"><path id="kity_path_736" fill="white" stroke="gray" d="M6,0A6,6,0,1,1,-6,0A6,6,0,1,1,6,0"></path><path id="kity_path_737" fill="none" stroke="gray"></path></g><path id="node_outline88" fill="transparent" stroke="none" d="M-5,-11h30a5,5,0,0,1,5,5v12a5,5,0,0,1,-5,5h-30a5,5,0,0,1,-5,-5v-12a5,5,0,0,1,5,-5z" stroke-width="3"></path><g id="node_text88" transform="translate( 0 -1.7999999999999998 )" fill="black"><text id="kity_text_733" text-rendering="inherit" dominant-baseline="text-before-edge" font-size="12" dy="0" y="-6">QQ</text></g></g><g id="minder_node89" transform="matrix( 1 0 0 1 -199 194 )"><g id="node_expander88" transform="translate( -16 0 )" style="cursor: pointer;" display="none"><path id="kity_path_744" fill="white" stroke="gray" d="M6,0A6,6,0,1,1,-6,0A6,6,0,1,1,6,0"></path><path id="kity_path_745" fill="none" stroke="gray"></path></g><path id="node_outline89" fill="transparent" stroke="none" d="M-5,-11h58a5,5,0,0,1,5,5v12a5,5,0,0,1,-5,5h-58a5,5,0,0,1,-5,-5v-12a5,5,0,0,1,5,-5z" stroke-width="3"></path><g id="node_text89" transform="translate( 0 -1.7999999999999998 )" fill="black"><text id="kity_text_741" text-rendering="inherit" dominant-baseline="text-before-edge" font-size="12" dy="0" y="-6">完整课表</text></g></g><g id="minder_node90" transform="matrix( 1 0 0 1 -199 298 )"><g id="node_expander89" transform="translate( -16 0 )" style="cursor: pointer;" display="none"><path id="kity_path_730" fill="white" stroke="gray" d="M6,0A6,6,0,1,1,-6,0A6,6,0,1,1,6,0"></path><path id="kity_path_753" fill="none" stroke="gray"></path></g><path id="node_outline90" fill="transparent" stroke="none" d="M-5,-11h70a5,5,0,0,1,5,5v12a5,5,0,0,1,-5,5h-70a5,5,0,0,1,-5,-5v-12a5,5,0,0,1,5,-5z" stroke-width="3"></path><g id="node_text90" transform="translate( 0 -1.7999999999999998 )" fill="black"><text id="kity_text_749" text-rendering="inherit" dominant-baseline="text-before-edge" font-size="12" dy="0" y="-6">本学期作业</text></g></g><g id="minder_node91" transform="matrix( 1 0 0 1 -199 402 )"><g id="node_expander90" transform="translate( -16 0 )" style="cursor: pointer;" display="none"><path id="kity_path_760" fill="white" stroke="gray" d="M6,0A6,6,0,1,1,-6,0A6,6,0,1,1,6,0"></path><path id="kity_path_761" fill="none" stroke="gray"></path></g><path id="node_outline91" fill="transparent" stroke="none" d="M-5,-11h58a5,5,0,0,1,5,5v12a5,5,0,0,1,-5,5h-58a5,5,0,0,1,-5,-5v-12a5,5,0,0,1,5,-5z" stroke-width="3"></path><g id="node_text91" transform="translate( 0 -1.7999999999999998 )" fill="black"><text id="kity_text_757" text-rendering="inherit" dominant-baseline="text-before-edge" font-size="12" dy="0" y="-6">近期文章</text></g></g><g id="minder_node92" transform="matrix( 1 0 0 1 1 194 )"><g id="node_expander91" transform="translate( -16 0 )" style="cursor: pointer;" display="none"><path id="kity_path_768" fill="white" stroke="gray" d="M6,0A6,6,0,1,1,-6,0A6,6,0,1,1,6,0"></path><path id="kity_path_769" fill="none" stroke="gray"></path></g><path id="node_outline92" fill="transparent" stroke="none" d="M-5,-11h58a5,5,0,0,1,5,5v12a5,5,0,0,1,-5,5h-58a5,5,0,0,1,-5,-5v-12a5,5,0,0,1,5,-5z" stroke-width="3"></path><g id="node_text92" transform="translate( 0 -1.7999999999999998 )" fill="black"><text id="kity_text_765" text-rendering="inherit" dominant-baseline="text-before-edge" font-size="12" dy="0" y="-6">学校信息</text></g></g><g id="minder_node93" transform="matrix( 1 0 0 1 1 246 )"><g id="node_expander92" transform="translate( -16 0 )" style="cursor: pointer;" display="none"><path id="kity_path_776" fill="white" stroke="gray" d="M6,0A6,6,0,1,1,-6,0A6,6,0,1,1,6,0"></path><path id="kity_path_777" fill="none" stroke="gray"></path></g><path id="node_outline93" fill="transparent" stroke="none" d="M-5,-11h58a5,5,0,0,1,5,5v12a5,5,0,0,1,-5,5h-58a5,5,0,0,1,-5,-5v-12a5,5,0,0,1,5,-5z" stroke-width="3"></path><g id="node_text93" transform="translate( 0 -1.7999999999999998 )" fill="black"><text id="kity_text_773" text-rendering="inherit" dominant-baseline="text-before-edge" font-size="12" dy="0" y="-6">归属院系</text></g></g><g id="minder_node94" transform="matrix( 1 0 0 1 1 298 )"><g id="node_expander93" transform="translate( -16 0 )" style="cursor: pointer;" display="none"><path id="kity_path_784" fill="white" stroke="gray" d="M6,0A6,6,0,1,1,-6,0A6,6,0,1,1,6,0"></path><path id="kity_path_785" fill="none" stroke="gray"></path></g><path id="node_outline94" fill="transparent" stroke="none" d="M-5,-11h58a5,5,0,0,1,5,5v12a5,5,0,0,1,-5,5h-58a5,5,0,0,1,-5,-5v-12a5,5,0,0,1,5,-5z" stroke-width="3"></path><g id="node_text94" transform="translate( 0 -1.7999999999999998 )" fill="black"><text id="kity_text_781" text-rendering="inherit" dominant-baseline="text-before-edge" font-size="12" dy="0" y="-6">入学年份</text></g></g><g id="minder_node96" transform="matrix( 1 0 0 1 1 350 )"><g id="node_expander95" transform="translate( -16 0 )" style="cursor: pointer;" display="none"><path id="kity_path_800" fill="white" stroke="gray" d="M6,0A6,6,0,1,1,-6,0A6,6,0,1,1,6,0"></path><path id="kity_path_801" fill="none" stroke="gray"></path></g><path id="node_outline96" fill="transparent" stroke="none" d="M-5,-11h58a5,5,0,0,1,5,5v12a5,5,0,0,1,-5,5h-58a5,5,0,0,1,-5,-5v-12a5,5,0,0,1,5,-5z" stroke-width="3"></path><g id="node_text96" transform="translate( 0 -1.7999999999999998 )" fill="black"><text id="kity_text_797" text-rendering="inherit" dominant-baseline="text-before-edge" font-size="12" dy="0" y="-6">专业层次</text></g></g><g id="minder_node97" transform="matrix( 1 0 0 1 1 454 )"><g id="node_expander96" transform="translate( -16 0 )" style="cursor: pointer;" display="none"><path id="kity_path_808" fill="white" stroke="gray" d="M6,0A6,6,0,1,1,-6,0A6,6,0,1,1,6,0"></path><path id="kity_path_809" fill="none" stroke="gray"></path></g><path id="node_outline97" fill="transparent" stroke="none" d="M-5,-11h58a5,5,0,0,1,5,5v12a5,5,0,0,1,-5,5h-58a5,5,0,0,1,-5,-5v-12a5,5,0,0,1,5,-5z" stroke-width="3"></path><g id="node_text97" transform="translate( 0 -1.7999999999999998 )" fill="black"><text id="kity_text_805" text-rendering="inherit" dominant-baseline="text-before-edge" font-size="12" dy="0" y="-6">活动文章</text></g></g><g id="minder_node98" transform="matrix( 1 0 0 1 1 558 )"><g id="node_expander97" transform="translate( -16 0 )" style="cursor: pointer;" display="none"><path id="kity_path_816" fill="white" stroke="gray" d="M6,0A6,6,0,1,1,-6,0A6,6,0,1,1,6,0"></path><path id="kity_path_817" fill="none" stroke="gray"></path></g><path id="node_outline98" fill="transparent" stroke="none" d="M-5,-11h58a5,5,0,0,1,5,5v12a5,5,0,0,1,-5,5h-58a5,5,0,0,1,-5,-5v-12a5,5,0,0,1,5,-5z" stroke-width="3"></path><g id="node_text98" transform="translate( 0 -1.7999999999999998 )" fill="black"><text id="kity_text_813" text-rendering="inherit" dominant-baseline="text-before-edge" font-size="12" dy="0" y="-6">具体标签</text></g></g><g id="minder_node99" transform="matrix( 1 0 0 1 1 662 )"><g id="node_expander98" transform="translate( -16 0 )" style="cursor: pointer;" display="none"><path id="kity_path_824" fill="white" stroke="gray" d="M6,0A6,6,0,1,1,-6,0A6,6,0,1,1,6,0"></path><path id="kity_path_825" fill="none" stroke="gray"></path></g><path id="node_outline99" fill="transparent" stroke="none" d="M-5,-11h58a5,5,0,0,1,5,5v12a5,5,0,0,1,-5,5h-58a5,5,0,0,1,-5,-5v-12a5,5,0,0,1,5,-5z" stroke-width="3"></path><g id="node_text99" transform="translate( 0 -1.7999999999999998 )" fill="black"><text id="kity_text_821" text-rendering="inherit" dominant-baseline="text-before-edge" font-size="12" dy="0" y="-6">具体访客</text></g></g></g></g></svg>